<?xml version="1.0" encoding="utf-8"?>
<!-- Generator: Adobe Illustrator 19.2.1, SVG Export Plug-In . SVG Version: 6.00 Build 0)  -->
<svg version="1.1" id="Layer_1" xmlns="http://www.w3.org/2000/svg" xmlns:xlink="http://www.w3.org/1999/xlink" x="0px" y="0px"
	 viewBox="0 0 150 150" style="enable-background:new 0 0 150 150;" xml:space="preserve">
<style type="text/css">
	.st0{fill:none;stroke:#FFFFFF;stroke-width:0.5451;stroke-miterlimit:10;}
	.st1{fill:none;stroke:#FFFFFF;stroke-width:0.7001;stroke-miterlimit:10;}
	.st2{fill:none;stroke:#FFFFFF;stroke-width:0.6109;stroke-miterlimit:10;}
	.st3{fill:none;stroke:#FFFFFF;stroke-width:0.6679;stroke-miterlimit:10;}
	.st4{fill:none;stroke:#FFFFFF;stroke-width:0.2725;stroke-miterlimit:10;}
	.st5{fill:none;stroke:#FFFFFF;stroke-width:0.4088;stroke-miterlimit:10;}
	.st6{fill:none;stroke:#FFFFFF;stroke-width:0.1363;stroke-miterlimit:10;}
</style>
<g id="MiamiBeach">
</g>
<g id="Downtown">
</g>
<g id="Wynwood">
</g>
<g id="DesignD">
	<g>
		<path class="st0" d="M18.2,115.4c0.5-1.3,0.3-4.2-1.9-17.8s-4.7-16-4.7-16l-0.8,2.6c0,0-3.9,7.7-2.2,15.7c1,5,4.6,10.7,8.6,13.1
			C17.1,113.1,18.4,114.4,18.2,115.4z"/>
		<path class="st0" d="M11.9,77.7c1.2-0.7,1.7-2.8,8.2-14.9s7.4-15.1,7.4-15.1l-2.2,1.5c0,0-8.5,3.1-12,10.5
			c-2.3,4.6-2.7,11.1-1,15.5C12.2,75.2,12.8,77.1,11.9,77.7z"/>
		<path class="st1" d="M114,41.3c-0.1,1.7,1.1,4.3,9.4,18.2s11.5,15.9,11.5,15.9l0.1-3.3c0,0,3.4-10.8-2-18.8
			c-3.3-5.1-10.2-9.4-16.5-10.2C116.5,43.1,114,42.6,114,41.3z"/>
		<path class="st0" d="M11.5,81.7c0,0,4-0.8,4.8-1.3s-3-2.4-4.4-2.7"/>
		<path class="st0" d="M27.5,47.6c0,0,0.4,0,0.8,0.2c0.8,0.2,1.9,0.6,2.4,1.3"/>
		<path class="st0" d="M31.6,43.2c0,0-1,1.8-1.3,3.1c-0.3,1.4,3.1,4.6,15.7-1.2s17.2-13,16.7-14.1s-9.3-3.1-16.5-0.5
			S32.9,40,31.6,43.2z"/>
		<path class="st2" d="M111,39.8c0.6,1.4-1.1,7.3-16.2,3.1s-21.6-9.2-21.1-12.5c0.4-1.3,9.9-5,18.4-3.5C105,29,110.4,38.4,111,39.8z
			"/>
		<path class="st0" d="M31,44.3c0,0-2.3,2.4-2.6,3.4"/>
		<path class="st0" d="M18.7,69.4C23.1,57.5,30,56.2,34,56.6c3.9,0.4,13.2,5.4,6.2,23.9c0,0-5.6,12.6-14.3,10.8S15.8,76.9,18.7,69.4
			z"/>
		<path class="st3" d="M122.2,64.2c-7.3-12.8-16.6-13.2-21.7-12.1c-5.1,1.1-16.4,8.2-4.9,28.1c0,0,9,13.5,20.1,10.1
			C126.9,86.9,126.9,72.4,122.2,64.2z"/>
		<ellipse class="st0" cx="67.6" cy="96.1" rx="20.5" ry="19.3"/>
		<ellipse class="st0" cx="67.2" cy="55.1" rx="19.5" ry="16.2"/>
		<path class="st0" d="M18.2,115.4c0,0,0.5-1.5,1.6-1.5c1.1,0.1,2.1,0,2.1,0"/>
		<path class="st0" d="M24.1,118.2c0,0-8.9-14.7,0-19.9s23.3,10,23.9,20.9L24.1,118.2z"/>
		<path class="st0" d="M87.4,120c0,0,11.2,0.4,21.5,0.4c4.2,0,9.3-1.2,9.3-1.2s12.7-16.3-4.3-21.9S86.1,116.2,87.4,120z"/>
		<path class="st4" d="M56.9,29.2c0,0,2.6-4.4,13-4.9c6.4-0.3,11.9,0.7,13.7,2.5"/>
		<path class="st0" d="M59,29.7c0,0,13.5-3.3,19.2-1.6"/>
		<polyline class="st5" points="19.1,114.2 21,116.7 23.3,116.7 		"/>
		<path class="st4" d="M20.2,116c0,0-3.3-0.5-3.6,0.9c-0.3,1.4,7.5,1.2,7.5,1.2"/>
		<path class="st6" d="M24.3,65.2c2.2,0.4,6.2,7.4,5,14.5c-1.1,7.1-4.8,11.2-4.8,11.2"/>
		<path class="st6" d="M34.3,56.7c0,0-9.7,4.7-13.3,14.6s-0.3,16.8-0.3,16.8"/>
		<path class="st6" d="M39.3,59.2c0,0-7.2,7.8-5.7,14.8s6.4,7,6.4,7"/>
		<path class="st6" d="M47.8,55.7c0,0,4.7-1.9,8.4,2.6s1.7,10.9,1.7,10.9"/>
		<path class="st6" d="M33.5,48.4c0,0,4.8-5,9.9-7.8c4.2-2.2,7.2-2.8,8.2-2.2c1.1,0.5,0.6,3.4,0.6,3.4"/>
		<path class="st6" d="M61.9,33c0,0-7.6,1.6-9.5,3.2"/>
		<path class="st6" d="M57.3,34.2c0,0,0.5,1.3,2.4,1.6"/>
		<path class="st6" d="M86.4,52.2c-4.6,7.2-15.9,7.9-23,5.3c-3.4-0.9-8.3-5.8-5.7-11c4.5-7.2,17.1-7.2,26.6,0.7"/>
		<path class="st6" d="M64.2,71.1c0,0,1.8-2.5,5.7-3.7c3.9-1.2,5.3-0.3,5.3-0.3"/>
		<path class="st6" d="M74.1,32.1c0,0,6.5-0.5,12.3,1.3"/>
		<path class="st6" d="M76.5,35c0,0,5.5-0.5,7.6-2.1"/>
		<path class="st6" d="M94.8,42.9c-3.3-2.3-5.1-7.2-3.3-7.6s8.2-0.6,17.1,7.9"/>
		<path class="st6" d="M98.9,52.6c3.1,0,13.9,3.5,15.1,15.9S99.9,81.3,92.6,74"/>
		<path class="st6" d="M118.1,43.4c0,0,16,20.3,17.2,27.7"/>
		<path class="st6" d="M119.5,99.9c0.4,1.7,0.6,3.2,0.7,4.6c0.6,8.4-2.9,11.6-2.9,11.6c-1.1,0.5-3.7-0.2-3.7-0.2s3.2-8.9,6.6-11.7"
			/>
		<path class="st6" d="M116.9,98.4c0,0-5,13.2-13,13.6s-10.5-6.4-10.5-6.4"/>
		<path class="st6" d="M99.8,85c4.8-1.9,13.2-1.2,16,5.3"/>
		<path class="st6" d="M27.5,118.3c0,0-6.7-11.8-3.9-19.6"/>
		<path class="st6" d="M23.2,99.8c5.4,0.8,11.7,15.6,11.7,15.6h-8.8"/>
		<path class="st6" d="M30.9,97.6c0,0,1.7,13.2,14,12.2"/>
		<path class="st6" d="M52.3,119.1c0,0,19,1.5,28.7,1.2"/>
		<path class="st6" d="M51.6,108.2c0,0,5.8-2.5,4.6-10.6c-1.3-8.1-6.9-10.1-6.9-10.1"/>
		<path class="st6" d="M59.7,78.3c0,0-2.1,9.5,6.9,14.1c6.6,3.3,13.2-1,13.2-1"/>
		<path class="st6" d="M59.7,113.9c0,0-1.4-10.2,8.2-14.1c12-4.6,18.1,4.8,18.1,4.8"/>
		<path class="st5" d="M107.2,34.6c0,0,6.8,1.3,10.2,8.7"/>
		<path class="st5" d="M135.6,69.5c0,0,2.9,8.4,1.5,11.3"/>
		<path class="st0" d="M135.3,78.8c0,0-2.7,0-4.9-1.5"/>
		<path class="st0" d="M134.9,75.4c0,0-2-1.3-4.5,0.7"/>
		<path class="st0" d="M62.6,31c0,0,1.1,2.2,3.1,3.2"/>
		<path class="st0" d="M73.8,30.4c-2.2,3.7-4.1,4.6-4.1,4.6"/>
		<path class="st0" d="M111,41.2c0,0-1.6,3.5-1,4.7"/>
		<path class="st0" d="M114,41.3c0,0-1.5,2.4-4.1,3"/>
		<path class="st4" d="M12.8,81.4c0,0-0.6-2.1,0-3.4"/>
		<path class="st0" d="M130.4,113.9c0,0-2.5-7.5-2.7-15s3-17.3,7.6-20.1c0,0,14.1,12,1.4,29.9C136.7,108.8,134.2,112.1,130.4,113.9z
			"/>
		<path class="st4" d="M133.3,112.1c-0.8,3.4-1.6,4.8-1.6,4.8l-10.6,1.3"/>
		<path class="st0" d="M124.3,113.9c0,0,4.8-0.6,6.1,0"/>
		<path class="st6" d="M16.6,116.9v4.8c0,0,0,0,3.4,0.6c16.3,0.7,87.1,3.8,99.2,3.3s15-1.2,18.2-3c0,0,0.1-3-0.1-5.4"/>
		<path class="st4" d="M132.4,115.4c1.3,0.4,3.7-0.3,5,1.8c1.3,2.2-17.8,2.5-17.8,2.5"/>
		<path class="st6" d="M134.8,100.8c3.4-9.6,2.2-16.6,2-18.3"/>
		<path class="st6" d="M30.4,46.9c10.6-13.8,29.8-17,29.8-17"/>
		<path class="st6" d="M111,39.8c-5-5.5-21.3-12.5-35.3-10.7"/>
	</g>
</g>
</svg>
