<?xml version="1.0" encoding="utf-8"?>
<!-- Generator: Adobe Illustrator 19.2.1, SVG Export Plug-In . SVG Version: 6.00 Build 0)  -->
<svg version="1.1" id="Layer_1" xmlns="http://www.w3.org/2000/svg" xmlns:xlink="http://www.w3.org/1999/xlink" x="0px" y="0px"
	 viewBox="0 0 150 150" style="enable-background:new 0 0 150 150;" xml:space="preserve">
<style type="text/css">
	.st0{fill:none;stroke:#FFFFFF;stroke-width:0.6633;stroke-linecap:round;stroke-linejoin:round;stroke-miterlimit:10;}
	.st1{fill:none;stroke:#FFFFFF;stroke-width:0.4975;stroke-linecap:round;stroke-linejoin:round;stroke-miterlimit:10;}
	.st2{fill:none;stroke:#FFFFFF;stroke-width:0.3316;stroke-linecap:round;stroke-linejoin:round;stroke-miterlimit:10;}
	.st3{fill:none;stroke:#FFFFFF;stroke-width:0.398;stroke-linecap:round;stroke-linejoin:round;stroke-miterlimit:10;}
	.st4{fill:none;stroke:#FFFFFF;stroke-width:0.1327;stroke-linecap:round;stroke-linejoin:round;stroke-miterlimit:10;}
	.st5{fill:none;stroke:#FFFFFF;stroke-width:0.4643;stroke-linecap:round;stroke-linejoin:round;stroke-miterlimit:10;}
	.st6{fill:none;stroke:#FFFFFF;stroke-width:0.5306;stroke-linecap:round;stroke-linejoin:round;stroke-miterlimit:10;}
	.st7{fill:none;stroke:#FFFFFF;stroke-width:0.2;stroke-linecap:round;stroke-miterlimit:10;}
	.st8{fill:none;stroke:#FFFFFF;stroke-width:0.2653;stroke-linecap:round;stroke-miterlimit:10;}
	.st9{fill:none;stroke:#FFFFFF;stroke-width:0.2491;stroke-linecap:round;stroke-miterlimit:10;}
	.st10{fill:none;stroke:#FFFFFF;stroke-width:0.2374;stroke-linecap:round;stroke-miterlimit:10;}
	.st11{fill:none;stroke:#FFFFFF;stroke-width:0.1822;stroke-linecap:round;stroke-miterlimit:10;}
	.st12{fill:none;stroke:#FFFFFF;stroke-width:0.2776;stroke-linecap:round;stroke-miterlimit:10;}
	.st13{fill:none;stroke:#FFFFFF;stroke-width:0.2371;stroke-linecap:round;stroke-miterlimit:10;}
	.st14{fill:none;stroke:#FFFFFF;stroke-width:0.2847;stroke-linecap:round;stroke-miterlimit:10;}
	.st15{fill:none;stroke:#FFFFFF;stroke-width:0.199;stroke-linecap:round;stroke-linejoin:round;stroke-miterlimit:10;}
</style>
<g id="MiamiBeach">
</g>
<g id="Downtown">
	<g>
		<polygon class="st0" points="74,3.4 55.8,20.5 55.8,23.7 52.4,27.8 52.4,31.8 50.2,33.4 52.4,33.4 52.4,45.4 48,48.6 48,96.4 
			31.2,102.6 31.2,121.3 19.8,123.6 19.8,144.6 74,146.6 130.2,144.7 130.2,126.9 116.4,123.1 116.4,104.9 100.2,98.4 100.2,49.6 
			95.9,46.2 95.9,33.4 97.9,33.4 95.9,31.4 95.9,28 92.3,23.7 92.3,20.5 		"/>
		<polyline class="st1" points="95.9,30.1 80.1,15.8 78.6,17.3 69.4,17.3 68.2,15.9 52.4,29.4 		"/>
		<polygon class="st2" points="74,29.4 68.1,33.4 68.1,18.8 70,20.5 78.2,20.5 80,18.8 80,33.4 		"/>
		<line class="st3" x1="53.5" y1="31" x2="66.7" y2="19.6"/>
		<line class="st3" x1="94.9" y1="32.8" x2="81.3" y2="20.5"/>
		<polyline class="st4" points="77.2,10.3 70.7,10.3 70.7,14.9 		"/>
		<polyline class="st5" points="49.3,49.2 74,31 97.6,49.8 		"/>
		<line class="st3" x1="69.3" y1="24.3" x2="69.3" y2="32.1"/>
		<line class="st3" x1="78.7" y1="24.3" x2="78.7" y2="32.3"/>
		<line class="st3" x1="69.3" y1="23" x2="78.5" y2="23"/>
		<line class="st3" x1="69.8" y1="23.7" x2="78.2" y2="23.7"/>
		<line class="st3" x1="53.5" y1="32.8" x2="67.2" y2="21.6"/>
		<line class="st3" x1="80.5" y1="21.6" x2="94.5" y2="34.1"/>
		<line class="st6" x1="75" y1="82.9" x2="99.3" y2="93.8"/>
		<polyline class="st6" points="73.4,112.6 66.7,113.7 66.7,97.7 73.4,99.8 		"/>
		<polyline class="st6" points="74,99.4 80.5,97.7 80.5,114 74,112.7 		"/>
		<line class="st6" x1="74" y1="100.3" x2="74" y2="111.4"/>
		<polyline class="st6" points="20.7,124.7 72.7,115.1 130.2,127.8 		"/>
		<polyline class="st6" points="49.3,53.8 73.9,36.3 74,82.3 48,92.4 		"/>
		<line class="st6" x1="99.3" y1="55.3" x2="75" y2="37"/>
		<line class="st7" x1="50" y1="70.4" x2="50" y2="91.6"/>
		<line class="st8" x1="51.6" y1="53.2" x2="51.6" y2="91"/>
		<line class="st8" x1="53.8" y1="52.2" x2="53.8" y2="89.9"/>
		<line class="st9" x1="56" y1="55.6" x2="56" y2="88.9"/>
		<line class="st10" x1="58.7" y1="57.6" x2="58.7" y2="87.8"/>
		<line class="st11" x1="60.5" y1="68.9" x2="60.5" y2="86.7"/>
		<line class="st12" x1="63.6" y1="44.7" x2="63.6" y2="86"/>
		<line class="st13" x1="65.8" y1="54.8" x2="65.8" y2="85"/>
		<line class="st14" x1="71.6" y1="39.8" x2="71.6" y2="83.2"/>
		<line class="st8" x1="69.3" y1="46.5" x2="69.3" y2="84.3"/>
		<line class="st7" x1="98.3" y1="72.1" x2="98.3" y2="93.3"/>
		<line class="st8" x1="96.7" y1="54.9" x2="96.7" y2="92.7"/>
		<line class="st8" x1="94.5" y1="53.9" x2="94.5" y2="91.6"/>
		<line class="st9" x1="92.2" y1="57.3" x2="92.2" y2="90.6"/>
		<line class="st10" x1="89.1" y1="59.3" x2="89.1" y2="89.5"/>
		<line class="st11" x1="87.4" y1="70.6" x2="87.4" y2="88.4"/>
		<line class="st12" x1="84.2" y1="45.8" x2="84.2" y2="87.1"/>
		<line class="st13" x1="82" y1="55.9" x2="82" y2="86"/>
		<line class="st14" x1="76" y1="39.6" x2="76" y2="83.1"/>
		<line class="st8" x1="78.4" y1="46.4" x2="78.4" y2="84.1"/>
		<polyline class="st12" points="49,96.4 66.7,89.9 74,92.7 80.5,90.3 		"/>
		<polygon class="st12" points="69,86 69,89.2 71.2,88.3 71.2,85.3 		"/>
		<polyline class="st12" points="65.6,87.5 53.8,92 49.3,93.8 49.3,96.3 		"/>
		<polyline class="st12" points="53.8,94.6 53.8,92 55.5,91.4 55.5,94 		"/>
		<polyline class="st12" points="76.6,85.5 98.6,95.2 98.6,97.7 87.2,93.3 87.2,90.8 		"/>
		<line class="st12" x1="89.3" y1="93.6" x2="89.3" y2="91.6"/>
		<line class="st12" x1="92.2" y1="95" x2="92.2" y2="92.7"/>
		<polyline class="st12" points="82,90.8 84.2,91.9 84.2,88.9 		"/>
		<polygon class="st12" points="35.3,107.2 35.3,120.2 58.7,115.7 58.7,99.7 		"/>
		<polygon class="st12" points="88.4,100.8 88.4,116.2 114.6,122.7 114.6,110 		"/>
		<line class="st8" x1="56" y1="107" x2="58.7" y2="106.3"/>
		<line class="st8" x1="50" y1="108.8" x2="53" y2="107.9"/>
		<line class="st8" x1="45.3" y1="110.1" x2="48" y2="109.4"/>
		<line class="st8" x1="40.6" y1="111.5" x2="43.1" y2="110.8"/>
		<line class="st8" x1="36.3" y1="112.6" x2="38.7" y2="112"/>
		<line class="st12" x1="55.4" y1="109.2" x2="58.7" y2="108.4"/>
		<line class="st12" x1="50" y1="110.6" x2="53.7" y2="109.6"/>
		<line class="st12" x1="45.3" y1="111.8" x2="48.2" y2="111"/>
		<line class="st12" x1="40.6" y1="112.9" x2="43.4" y2="112.2"/>
		<line class="st12" x1="36.3" y1="114" x2="39" y2="113.4"/>
		<line class="st15" x1="55.4" y1="108.3" x2="58.7" y2="107.4"/>
		<line class="st15" x1="50.3" y1="109.6" x2="53.4" y2="108.8"/>
		<line class="st15" x1="45.3" y1="111" x2="48" y2="110.2"/>
		<line class="st15" x1="40.6" y1="112.2" x2="43.3" y2="111.5"/>
		<line class="st15" x1="36.3" y1="113.4" x2="38.7" y2="112.7"/>
		<line class="st8" x1="91" y1="107.9" x2="88.4" y2="107.2"/>
		<line class="st8" x1="97.1" y1="109.7" x2="94.1" y2="108.8"/>
		<line class="st8" x1="101.8" y1="111" x2="99.1" y2="110.2"/>
		<line class="st8" x1="106.5" y1="112.4" x2="104" y2="111.7"/>
		<line class="st8" x1="110.7" y1="113.5" x2="108.3" y2="112.9"/>
		<line class="st12" x1="91.7" y1="110.1" x2="88.4" y2="109.2"/>
		<line class="st12" x1="97.1" y1="111.4" x2="93.4" y2="110.5"/>
		<line class="st12" x1="101.8" y1="112.6" x2="98.9" y2="111.9"/>
		<line class="st12" x1="106.5" y1="113.8" x2="103.7" y2="113.1"/>
		<line class="st12" x1="110.7" y1="114.9" x2="108.1" y2="114.2"/>
		<line class="st15" x1="91.7" y1="109.2" x2="88.4" y2="108.3"/>
		<line class="st15" x1="96.8" y1="110.5" x2="93.6" y2="109.7"/>
		<line class="st15" x1="101.8" y1="111.8" x2="99.1" y2="111.1"/>
		<line class="st15" x1="106.5" y1="113.1" x2="103.8" y2="112.4"/>
		<line class="st15" x1="110.7" y1="114.2" x2="108.3" y2="113.6"/>
		<polyline class="st15" points="52.4,35.3 54.5,33.6 67,23.7 		"/>
		<line class="st15" x1="54.5" y1="41.2" x2="54.5" y2="33.6"/>
		<line class="st15" x1="56" y1="36.3" x2="56" y2="32.4"/>
		<polyline class="st15" points="58,38.6 61.6,36 61.6,28 		"/>
		<line class="st15" x1="58.5" y1="34.1" x2="61.6" y2="31.8"/>
		<polyline class="st15" points="63.6,26.4 63.6,30.3 66.7,27.9 66.7,32.1 63.6,34.7 63.7,38.6 		"/>
		<polyline class="st15" points="56.6,40.4 53.8,42.7 53.8,45.1 54.8,44.3 54.8,42.7 		"/>
		<polyline class="st15" points="58.5,39.1 58.5,41.8 61.6,39.6 61.6,36.7 60.7,37.4 60.7,39.2 		"/>
		<polyline class="st15" points="64.4,34.8 66.7,32.9 66.7,36.3 		"/>
		<polyline class="st15" points="81.3,24.3 94.1,35.3 94.1,42.7 91.7,40.8 91.7,35.3 		"/>
		<line class="st15" x1="81.3" y1="32.4" x2="89.8" y2="39.6"/>
		<line class="st15" x1="86.4" y1="30.1" x2="86.4" y2="37"/>
		<line class="st15" x1="84.2" y1="28.2" x2="84.2" y2="34.6"/>
		<line class="st15" x1="74" y1="121.3" x2="19.8" y2="128.5"/>
		<polyline class="st15" points="22.2,129.6 73,122.7 130.2,132.7 		"/>
		<polyline class="st15" points="23.3,130.7 73,124.4 130.2,133.6 		"/>
		<polyline class="st15" points="33.4,130.7 73,126.1 130.2,134.7 		"/>
		<line class="st15" x1="72.7" y1="121.5" x2="130.2" y2="131.9"/>
		<line class="st15" x1="74" y1="146.6" x2="74" y2="127.7"/>
		<polyline class="st15" points="29.3,124.4 44.3,121.5 44.3,125.2 		"/>
		<polyline class="st15" points="47.6,120.9 70.1,117 70.1,121.3 48,124.3 		"/>
		<line class="st15" x1="53.8" y1="123.2" x2="53.8" y2="119.9"/>
		<line class="st15" x1="55.8" y1="121.7" x2="55.8" y2="119.5"/>
		<line class="st15" x1="60.1" y1="120.1" x2="60.1" y2="122.7"/>
		<line class="st15" x1="62.5" y1="118.9" x2="62.5" y2="122.3"/>
		<polyline class="st15" points="76.2,117 76.2,121.3 128.2,131.3 128.2,128.3 90.8,120.2 90.8,123.6 		"/>
		<line class="st15" x1="93.2" y1="121.5" x2="93.2" y2="124.6"/>
		<line class="st15" x1="97" y1="122.2" x2="97" y2="125.3"/>
		<line class="st15" x1="98.9" y1="124.9" x2="98.9" y2="121.9"/>
		<polyline class="st15" points="84,118.8 86.4,119.4 86.4,123.3 		"/>
		<line class="st15" x1="107.7" y1="124.2" x2="107.7" y2="127.3"/>
		<line class="st15" x1="109.5" y1="125.3" x2="109.5" y2="127.7"/>
		<line class="st15" x1="120.6" y1="127.3" x2="120.6" y2="129.8"/>
		<line class="st15" x1="89.7" y1="129.8" x2="89.7" y2="140.4"/>
		<polyline class="st15" points="93.6,130.4 92.8,132.2 92.8,140.4 		"/>
		<line class="st15" x1="95.6" y1="130.9" x2="95.6" y2="143.2"/>
		<polyline class="st15" points="99.6,131.3 98.6,133.2 98.6,145 		"/>
		<polyline class="st15" points="105.1,131.9 104,134 104,144.6 		"/>
		<polyline class="st15" points="109.8,132.7 108.7,134.4 108.7,142.6 		"/>
		<polyline class="st15" points="114.4,133.4 113.2,135.4 113.2,144.6 		"/>
		<polyline class="st15" points="118.5,134 117.3,135.8 117.3,144.4 		"/>
		<polyline class="st15" points="122.4,133.8 119.7,139 119.7,139.6 120.4,139.6 120.4,144.1 		"/>
		<polyline class="st15" points="124.3,134.2 124.3,137.7 125.1,137.7 125.1,135.1 125.8,134 		"/>
		<polyline class="st15" points="124.3,139.5 125.4,139.5 125.4,140 125,141 125,144.9 		"/>
		<polyline class="st15" points="127.4,134.3 127.4,138.1 128.2,138.1 128.2,144.1 		"/>
		<polyline class="st15" points="86.4,140.4 86.4,135.8 84,135.6 84,140.4 		"/>
		<polyline class="st15" points="86.4,128.6 86.4,132.9 84,132.7 		"/>
		<polyline class="st15" points="42.9,142.6 42.9,130.4 40.4,130.9 40.4,137.1 38.7,137.1 38.4,136.5 37.8,136.5 37.8,131.5 		"/>
		<polyline class="st15" points="23.7,132.9 27.2,132.7 27.2,144.8 		"/>
		<line class="st15" x1="30" y1="132.4" x2="30" y2="141.7"/>
		<polyline class="st15" points="43.6,136.5 45.6,136.5 45.6,142.6 		"/>
		<polyline class="st15" points="48.9,135.9 51,135.9 51,142.6 47.6,142.6 47.6,130.4 		"/>
		<polyline class="st15" points="49.3,130.9 49.3,133.6 51,133.6 51,129.5 		"/>
		<polyline class="st15" points="43.6,134.4 45.6,134.4 45.6,130.4 		"/>
		<polyline class="st15" points="54.8,141.7 54.8,135.6 70.1,135.1 70.1,140.4 		"/>
		<line class="st15" x1="56.8" y1="141.7" x2="56.8" y2="137.1"/>
		<line class="st15" x1="60.1" y1="136.1" x2="60.1" y2="144"/>
		<polyline class="st15" points="54.7,133.6 70.1,132.4 70.1,129 		"/>
		<line class="st15" x1="62.4" y1="128.5" x2="62.4" y2="133"/>
		<polyline class="st15" points="53.7,129.8 53.8,141.7 51.5,144.4 		"/>
		<polyline class="st15" points="53.2,27.9 59.7,20.2 66.2,16.8 55,26.1 		"/>
		<polyline class="st15" points="93.5,27.2 88.5,20.9 84.8,19.2 		"/>
		<polyline class="st15" points="73,13.9 74.8,13.9 74.8,11.7 73,11.7 		"/>
		<polyline class="st15" points="71.6,18.5 73.4,18.5 73.4,19.8 		"/>
		<polyline class="st15" points="76,19.8 76,18.5 74.8,18.5 		"/>
		<polyline class="st15" points="71.8,26.4 73.4,26.4 73.4,24.6 		"/>
		<polyline class="st15" points="74.8,24.6 74.8,26.4 76.2,26.4 76.2,24.3 		"/>
		<polyline class="st15" points="71.8,30.4 71.8,28 73.4,28 73.4,28.8 		"/>
		<polyline class="st15" points="74.5,28.8 74.5,28 76.2,28 76.2,29.9 		"/>
		<polyline class="st4" points="70.7,10.3 70.7,7.8 71.2,7.4 71.8,7.9 71.6,6.9 72.2,6.3 72.2,8.3 		"/>
		<polyline class="st4" points="76.9,9.6 76.9,7.6 75,5.8 75,6.8 74.5,6.8 74.5,5.4 74.2,4.9 74,3.4 		"/>
	</g>
</g>
<g id="Wynwood">
</g>
<g id="DesignD">
</g>
</svg>
