<?xml version="1.0" encoding="utf-8"?>
<!-- Generator: Adobe Illustrator 19.2.1, SVG Export Plug-In . SVG Version: 6.00 Build 0)  -->
<svg version="1.1" id="Layer_1" xmlns="http://www.w3.org/2000/svg" xmlns:xlink="http://www.w3.org/1999/xlink" x="0px" y="0px"
	 viewBox="0 0 150 150" style="enable-background:new 0 0 150 150;" xml:space="preserve">
<style type="text/css">
	.st0{fill:none;stroke:#FFFFFF;stroke-width:0.2735;stroke-miterlimit:10;}
	.st1{fill:none;stroke:#FFFFFF;stroke-width:0.2052;stroke-miterlimit:10;}
	.st2{fill:none;stroke:#FFFFFF;stroke-width:0.1368;stroke-miterlimit:10;}
	.st3{fill:none;stroke:#FFFFFF;stroke-width:5.4709;stroke-miterlimit:10;}
	.st4{fill:none;stroke:#FFFFFF;stroke-width:4.3767;stroke-miterlimit:10;}
	.st5{fill:none;stroke:#FFFFFF;stroke-width:5.1973;stroke-miterlimit:10;}
	.st6{fill:none;stroke:#FFFFFF;stroke-width:0.2725;stroke-miterlimit:10;}
	.st7{fill:none;stroke:#FFFFFF;stroke-width:0.2605;stroke-miterlimit:10;}
	.st8{fill:none;stroke:#FFFFFF;stroke-width:5.8389;stroke-miterlimit:10;}
	.st9{fill:none;stroke:#FFFFFF;stroke-width:2.4619;stroke-miterlimit:10;}
</style>
<g id="MiamiBeach">
	<g>
		<polyline class="st0" points="16.4,108.8 15.7,109.3 15.7,107.7 25.5,101.3 25.5,98.4 27.9,97.7 27.9,94.7 		"/>
		<polyline class="st0" points="16.4,108.8 16.4,132.2 17.7,131.6 18.4,131.5 19,130.9 19.5,131.1 20.4,131.3 24,132.2 25.4,132.2 
			27.9,129.9 27.9,134.3 26.7,134.3 26.7,137.1 26.3,137.1 26.3,137.5 127,137.5 127,134.3 126.8,134.3 126.8,132.2 127,132.2 
			127,120.1 128.5,120.1 128.5,97.7 127,97.7 127,97 127,94.7 126.8,94.7 126.8,88.2 131.6,82.3 131.6,66.9 132.6,66.9 132.6,64.3 
			131.6,64.3 131.6,53.4 132.6,53.4 132.6,50.9 134.3,50.9 134.3,49.9 105.2,49.9 105.2,18.5 131.6,18.5 131.6,12.5 21.5,12.5 
			21.5,18.5 47.2,18.5 47.2,49.9 17.7,49.9 17.7,50.9 19.5,50.9 19.5,53.4 20.4,53.4 20.4,64.3 19.5,64.3 19.5,66.9 20.4,66.9 
			20.4,80.9 21.5,80.9 21.5,82.3 24,82.3 24,84.2 27.9,88.1 27.9,94.7 		"/>
		<rect x="23.2" y="53.4" class="st1" width="21.7" height="10.9"/>
		<rect x="23.2" y="66.9" class="st1" width="21.7" height="9.3"/>
		<line class="st0" x1="48.4" y1="18.5" x2="98.2" y2="18.5"/>
		<line class="st1" x1="126" y1="18.5" x2="126" y2="49.9"/>
		<rect x="106.8" y="53.4" class="st1" width="21.7" height="10.9"/>
		<rect x="106.8" y="66.9" class="st1" width="21.7" height="9.3"/>
		<polyline class="st1" points="105.2,50.9 105.2,76.2 47.2,76.2 47.2,53.4 		"/>
		<line class="st0" x1="25.5" y1="82.3" x2="128.5" y2="82.3"/>
		<rect x="44.9" y="77" class="st2" width="2.3" height="3.9"/>
		<rect x="105.2" y="77" class="st2" width="1.7" height="3.9"/>
		<rect x="36" y="94.7" class="st1" width="84.9" height="2.3"/>
		<polygon class="st1" points="20.4,119.2 20.4,126.5 29,121.1 27.9,121.1 27.9,120.1 25.5,120.1 25.5,115.7 		"/>
		<polygon class="st1" points="20.4,115 20.4,108.8 25.5,105.5 25.5,111.8 		"/>
		<polygon class="st0" points="29,131.3 64.9,120.1 89.9,120.1 126,131.3 126,132.2 120.9,132.2 120.9,131.3 		"/>
		<polyline class="st0" points="29.9,121.1 33.6,121.1 33.6,128.9 		"/>
		<polyline class="st0" points="29,128.9 29,124.6 27.9,124.6 27.9,128.9 		"/>
		<polygon class="st0" points="36,122.3 43,120.1 36,120.1 		"/>
		<polyline class="st0" points="29,134.3 62.2,134.3 62.2,133.2 103.9,133.2 103.9,134.3 126,134.3 		"/>
		<polyline class="st1" points="58.6,123.1 58.6,126.5 105.2,126.5 		"/>
		<polyline class="st1" points="57.1,124.6 57.1,126.5 47.2,126.5 		"/>
		<line class="st3" x1="51" y1="18.5" x2="51" y2="76.2"/>
		<line class="st3" x1="62.2" y1="18.5" x2="62.2" y2="76.1"/>
		<line class="st3" x1="73.2" y1="18.5" x2="73.2" y2="76.2"/>
		<line class="st3" x1="84.5" y1="18.5" x2="84.5" y2="76.2"/>
		<line class="st3" x1="95.4" y1="18.5" x2="95.4" y2="76.2"/>
		<line class="st4" x1="28.9" y1="98.4" x2="28.9" y2="120.1"/>
		<line class="st5" x1="40.5" y1="98.4" x2="40.5" y2="120.1"/>
		<line class="st5" x1="51.6" y1="98.4" x2="51.6" y2="120.1"/>
		<line class="st5" x1="62.7" y1="98.4" x2="62.7" y2="120.1"/>
		<line class="st5" x1="73.8" y1="98.5" x2="73.8" y2="120.2"/>
		<line class="st5" x1="85" y1="98.4" x2="85" y2="120.1"/>
		<line class="st5" x1="96.1" y1="98.4" x2="96.1" y2="120.1"/>
		<line class="st5" x1="107.2" y1="98.4" x2="107.2" y2="120.1"/>
		<line class="st5" x1="118.3" y1="98.4" x2="118.3" y2="120.1"/>
		<line class="st6" x1="25.5" y1="98.4" x2="120.9" y2="98.4"/>
		<line class="st7" x1="93.6" y1="120.1" x2="120.9" y2="120.1"/>
		<line class="st0" x1="47.2" y1="120.1" x2="60.2" y2="120.1"/>
		<line class="st8" x1="113.3" y1="22.5" x2="113.3" y2="49.9"/>
		<line class="st9" x1="123.1" y1="22.5" x2="123.1" y2="49.9"/>
	</g>
</g>
<g id="Downtown">
</g>
<g id="Wynwood">
</g>
<g id="DesignD">
</g>
</svg>
