<?xml version="1.0" encoding="utf-8"?>
<!-- Generator: Adobe Illustrator 19.2.1, SVG Export Plug-In . SVG Version: 6.00 Build 0)  -->
<svg version="1.1" id="Layer_1" xmlns="http://www.w3.org/2000/svg" xmlns:xlink="http://www.w3.org/1999/xlink" x="0px" y="0px"
	 viewBox="0 0 150 150" style="enable-background:new 0 0 150 150;" xml:space="preserve">
<style type="text/css">
	.st0{fill:none;stroke:#FFFFFF;stroke-width:0.386;stroke-miterlimit:10;}
	.st1{fill:none;stroke:#FFFFFF;stroke-width:0.6542;stroke-miterlimit:10;}
	.st2{fill:none;stroke:#FFFFFF;stroke-width:0.4907;stroke-miterlimit:10;}
	.st3{fill:none;stroke:#FFFFFF;stroke-width:0.3981;stroke-miterlimit:10;}
	.st4{fill:none;stroke:#FFFFFF;stroke-width:0.4252;stroke-miterlimit:10;}
	.st5{fill:none;stroke:#FFFFFF;stroke-width:0.3271;stroke-miterlimit:10;}
	.st6{fill:none;stroke:#FFFFFF;stroke-width:0.1963;stroke-miterlimit:10;}
	.st7{fill:none;stroke:#FFFFFF;stroke-width:0.1308;stroke-miterlimit:10;}
	.st8{fill:none;stroke:#FFFFFF;stroke-width:0.9813;stroke-miterlimit:10;}
	.st9{fill:none;stroke:#FFFFFF;stroke-width:0.1636;stroke-miterlimit:10;}
	.st10{fill:none;stroke:#FFFFFF;stroke-width:0.1327;stroke-miterlimit:10;}
</style>
<g id="MiamiBeach">
</g>
<g id="Downtown">
</g>
<g id="Wynwood">
	<g>
		<polygon class="st0" points="25.2,18.1 25.8,40.6 27.9,40.6 32.1,24 32.8,40.6 35,40.6 40.1,17.9 37.9,17.9 34.5,33.1 33.7,18.1 
			31.5,18.1 27.9,33.1 27.5,18.1 		"/>
		<polygon class="st0" points="41.5,17.6 44.1,17.6 46.2,28.3 50.4,17.6 52.4,17.6 47,31.1 46.3,40.3 43.7,40.3 44.4,30.6 		"/>
		<polygon class="st0" points="54.8,17.4 53,40.3 55,40.3 56.6,24.1 61.5,40.3 63.2,40.3 65,17.4 62.5,17.4 61.5,32.4 56.9,17.4 		
			"/>
		<polygon class="st0" points="67.4,17.1 69.3,40.3 71,40.3 75,23.4 76.6,40.3 78.6,40.3 83.2,17.1 80.7,17.1 78.1,32.2 76.6,17.1 
			74.2,17.1 71,32.6 70,17.1 		"/>
		<path class="st0" d="M86.5,17.4c-0.6,0.7-0.9,1.6-0.9,2.8s-0.8,18.4-0.8,18.4s0.1,0.6,0.6,0.9c0.5,0.3,5.2,0.3,5.2,0.3
			s3.7,0.2,4.6,0s0.8-1.6,0.8-2.3s0.5-19.3,0.5-19.3s0.1-1.3-1-1.3h-6.8C88.8,16.8,87.2,16.7,86.5,17.4z"/>
		<polygon class="st0" points="90.7,18.5 88.3,18.5 87.6,38.1 93.3,38.1 93.9,18.5 		"/>
		<path class="st0" d="M100.2,18.5l-0.4,20.1c0,0,0.3,1.2,1.5,1.3s8.1,0,8.1,0s1.4-0.2,1.4-1.8c0.1-1.6,0.4-19.4,0.4-19.7
			c0-0.3-0.1-1.4-1.3-1.6c-1.2-0.1-8,0-8.2,0S100.4,17.1,100.2,18.5z"/>
		<polygon class="st0" points="102.7,18.5 108.3,18.5 108.2,38 102.4,38 		"/>
		<polygon class="st0" points="114.7,16.6 114.5,39.9 117.2,39.9 117.2,16.6 		"/>
		<path class="st0" d="M118.1,16.6v1.9h2.7c0,0,0.5-0.1,1.1,0.5s0.7,1.4,0.7,1.4l0.2,15.5c0,0,0.1,0.7-0.5,1.3
			c-0.6,0.5-1.5,0.8-1.9,0.9c-0.4,0.1-2.4,0-2.4,0V40c0,0,3.3,0,3.8-0.2s3.3-1.4,3.4-3.4S125,20.3,125,20.3s-0.2-1.3-0.9-2
			c-0.8-0.7-2.4-1.6-3.1-1.6C120.5,16.6,118.1,16.6,118.1,16.6z"/>
		<polyline class="st1" points="30,133.4 30,105.9 27.6,105.9 27.6,133.4 		"/>
		<path class="st2" d="M64.7,62.8c0,0,1,0.6,1,1.2l-22.1,69.4"/>
		<path class="st3" d="M48.3,56.9c3,0.5,9.2,1.6,11.9,2"/>
		<path class="st3" d="M35.3,55c0,0,0.3,0,0.8,0.1c1.8,0.3,6.7,1,11.7,1.7"/>
		<line class="st3" x1="24.3" y1="53.4" x2="34.5" y2="54.9"/>
		<polyline class="st3" points="23.7,52.4 16,52.2 23.8,53.3 		"/>
		<polyline class="st3" points="34.4,53.1 29.6,52.5 24.2,52.4 		"/>
		<line class="st3" x1="47.7" y1="54.7" x2="35" y2="53.1"/>
		<polyline class="st2" points="46.9,105.3 45.4,73.3 43.9,73.3 45.4,104.5 		"/>
		<polyline class="st4" points="54.4,87.6 53.3,64.2 52.1,64.2 53.3,87.6 		"/>
		<polyline class="st5" points="57.9,77.5 57.9,59.2 56.9,59.2 56.9,77.5 		"/>
		<polyline class="st6" points="61.2,71 61,53.4 60.2,53.4 60.4,70.5 		"/>
		<polyline class="st7" points="62.2,66.3 61.9,52.2 62.7,52.2 62.9,66 		"/>
		<polyline class="st7" points="63.8,62.8 63.8,50.1 64.6,50.1 64.4,63.1 		"/>
		<path class="st8" d="M16.7,133.4c5-6.5,11.8-23.3,12-24.6"/>
		<path class="st1" d="M30,108c4.7,0,10.6-17.9,14.7-32.8"/>
		<path class="st2" d="M45.5,75.2c0,0,4.1,2.5,7.1-10"/>
		<path class="st5" d="M53.4,65.7c0,0,2.5,2.3,4-5.5"/>
		<path class="st9" d="M57.9,60.9c0,0,1.8,1,2.8-6.2"/>
		<path class="st9" d="M61,56.1c0,0,0.9-0.2,1.2-2.7"/>
		<path class="st9" d="M62.7,53.4c0,0,0.7,0,1.5-2.5"/>
		<polyline class="st10" points="47.7,57.9 47.5,49 48.1,49 48.3,57.6 		"/>
		<polyline class="st10" points="34.6,55.2 33.9,47.3 34.6,47.3 35.2,55.5 		"/>
		<polyline class="st10" points="23.8,53.6 23.5,46.8 24,46.8 24.3,53.9 		"/>
		<polyline class="st10" points="15.6,52.2 15.4,45.9 15.6,45.9 16,52.6 		"/>
		<path class="st10" d="M47.8,49.4c0,0,4.6,3.4,16.8,1"/>
		<path class="st10" d="M47.8,49.4c-9,1.8-12.2-0.6-13.6-1.7c0,0-4.5,2.6-10.4-0.4c0,0-3.1,1.7-8.2-1.1"/>
		<polyline class="st1" points="121,133.4 121,105.9 123.4,105.9 123.4,133.4 		"/>
		<path class="st2" d="M86.2,62.8c0,0-1,0.6-1,1.2l22.1,69.4"/>
		<path class="st3" d="M101.7,56.9c-3,0.5-8.4,1.5-11,1.8"/>
		<path class="st3" d="M114.7,55c0,0-0.3,0-0.8,0.1c-1.8,0.3-6.7,1-11.7,1.7"/>
		<line class="st3" x1="125.7" y1="53.4" x2="115.5" y2="54.9"/>
		<polyline class="st3" points="126.3,52.4 134,52.2 126.2,53.3 		"/>
		<polyline class="st3" points="115.6,53.1 120.4,52.5 125.8,52.4 		"/>
		<line class="st3" x1="102.3" y1="54.7" x2="115" y2="53.1"/>
		<polyline class="st2" points="104,105.3 105.5,73.3 107,73.3 105.5,104.5 		"/>
		<polyline class="st4" points="96.5,87.6 97.7,64.2 98.8,64.2 97.7,87.6 		"/>
		<polyline class="st5" points="93,77.5 93,59.2 94.1,59.2 94.1,77.5 		"/>
		<polyline class="st6" points="89.8,71 90,53.4 90.8,53.4 90.5,70.5 		"/>
		<polyline class="st7" points="88.7,66.3 89.1,52.2 88.3,52.2 88,66 		"/>
		<polyline class="st7" points="87.2,62.8 87.2,50.1 86.4,50.1 86.6,63.1 		"/>
		<path class="st8" d="M134.2,133.4c-5-6.5-11.8-23.3-12-24.6"/>
		<path class="st1" d="M121,108c-4.7,0-10.6-17.9-14.7-32.8"/>
		<path class="st2" d="M105.4,75.2c0,0-4.1,2.5-7.1-10"/>
		<path class="st5" d="M97.6,65.7c0,0-2.5,2.3-4-5.5"/>
		<path class="st9" d="M93,60.9c0,0-1.8,1-2.8-6.2"/>
		<path class="st9" d="M90,56.1c0,0-0.9-0.2-1.2-2.7"/>
		<path class="st9" d="M88.3,53.4c0,0-0.7,0-1.5-2.5"/>
		<polyline class="st10" points="102.3,57.9 102.5,49 101.9,49 101.7,57.6 		"/>
		<polyline class="st10" points="115.4,55.2 116.1,47.3 115.4,47.3 114.8,55.5 		"/>
		<polyline class="st10" points="126.2,53.6 126.5,46.8 126,46.8 125.7,53.9 		"/>
		<polyline class="st10" points="134.4,52.2 134.6,45.9 134.4,45.9 134,52.6 		"/>
		<path class="st10" d="M102.2,49.4c0,0-4.6,3.4-16.8,1"/>
		<path class="st10" d="M102.2,49.4c9,1.8,12.2-0.6,13.6-1.7c0,0,4.5,2.6,10.4-0.4c0,0,3.1,1.7,8.2-1.1"/>
	</g>
</g>
<g id="DesignD">
</g>
</svg>
